<svg width="159" height="54" viewBox="0 0 159 54" fill="none" xmlns="http://www.w3.org/2000/svg">
<rect x="0.5" y="0.5" width="158" height="53" stroke="#2852AD"/>
<path d="M27 47C38.0457 47 47 38.0457 47 27C47 15.9543 38.0457 7 27 7C15.9543 7 7 15.9543 7 27C7 38.0457 15.9543 47 27 47Z" fill="#2852AD"/>
<path d="M35.1453 20.1134H23.8606V24.6417H34.2194V28.3454H23.8606V33.8287H35.6662V37.6626H19.5059V16.3373H35.1453V20.1134Z" fill="white"/>
<path d="M55.3104 33V21.8H64.6064V23.464H57.0384V31.336H64.6064V33H55.3104ZM56.2544 28.088V26.424H63.7264V28.088H56.2544ZM70.0761 33V21.8H79.3721V23.464H71.8041V31.336H79.3721V33H70.0761ZM71.0201 28.088V26.424H78.4921V28.088H71.0201ZM84.8417 33V21.8H91.3857C92.047 21.8 92.6497 21.9547 93.1937 22.264C93.7484 22.5627 94.191 22.9733 94.5217 23.496C94.8524 24.0187 95.0177 24.6 95.0177 25.24C95.0177 25.912 94.8364 26.5253 94.4737 27.08C94.111 27.624 93.631 28.0613 93.0337 28.392C92.4364 28.712 91.7804 28.872 91.0657 28.872H86.5697V33H84.8417ZM93.5137 33L89.7057 27.944L91.5457 27.544L95.6737 33.016L93.5137 33ZM86.5697 27.208H90.9057C91.311 27.208 91.6844 27.1173 92.0257 26.936C92.3777 26.7547 92.655 26.5147 92.8577 26.216C93.071 25.9173 93.1777 25.592 93.1777 25.24C93.1777 24.9093 93.071 24.6107 92.8577 24.344C92.655 24.0773 92.3777 23.864 92.0257 23.704C91.6844 23.544 91.311 23.464 90.9057 23.464H86.5697V27.208ZM101.142 33V31.288H104.07V23.512H101.142V21.8H108.726V23.512H105.798V31.288H108.726V33H101.142ZM119.406 33.16C118.606 33.16 117.864 33.08 117.182 32.92C116.51 32.76 115.891 32.52 115.326 32.2C114.771 31.88 114.264 31.4747 113.806 30.984L114.894 29.544C115.587 30.2587 116.291 30.7813 117.006 31.112C117.731 31.4427 118.536 31.608 119.422 31.608C119.976 31.608 120.51 31.544 121.022 31.416C121.534 31.2773 121.955 31.0747 122.286 30.808C122.616 30.5307 122.782 30.184 122.782 29.768C122.782 29.5013 122.691 29.2827 122.51 29.112C122.328 28.9413 122.088 28.8027 121.79 28.696C121.502 28.5893 121.187 28.504 120.846 28.44C120.504 28.376 120.174 28.328 119.854 28.296C119.544 28.264 119.283 28.2373 119.07 28.216C118.355 28.12 117.704 27.992 117.118 27.832C116.542 27.6613 116.046 27.448 115.63 27.192C115.224 26.936 114.91 26.6213 114.686 26.248C114.472 25.8747 114.366 25.4427 114.366 24.952C114.366 24.4293 114.488 23.9653 114.734 23.56C114.99 23.144 115.342 22.7973 115.79 22.52C116.248 22.232 116.776 22.0133 117.374 21.864C117.982 21.7147 118.638 21.64 119.342 21.64C120.088 21.64 120.771 21.7147 121.39 21.864C122.008 22.0133 122.558 22.2373 123.038 22.536C123.528 22.824 123.934 23.1813 124.254 23.608L123.102 24.872C122.803 24.5093 122.456 24.2053 122.062 23.96C121.667 23.704 121.235 23.512 120.766 23.384C120.307 23.256 119.816 23.192 119.294 23.192C118.718 23.192 118.2 23.256 117.742 23.384C117.283 23.512 116.92 23.6933 116.654 23.928C116.387 24.152 116.254 24.4293 116.254 24.76C116.254 25.048 116.334 25.2933 116.494 25.496C116.664 25.6987 116.899 25.8693 117.198 26.008C117.496 26.136 117.854 26.2427 118.27 26.328C118.696 26.4133 119.166 26.488 119.678 26.552C120.318 26.6267 120.936 26.7227 121.534 26.84C122.131 26.9573 122.664 27.1227 123.134 27.336C123.603 27.5387 123.976 27.816 124.254 28.168C124.531 28.52 124.67 28.9787 124.67 29.544C124.67 30.2693 124.451 30.904 124.014 31.448C123.576 31.992 122.963 32.4133 122.174 32.712C121.395 33.0107 120.472 33.16 119.406 33.16ZM128.711 29.144V27.608H134.439V29.144H128.711ZM139.837 33L144.477 22.888L144.669 23.4H137.885V21.8H145.933L146.157 22.904L141.693 33H139.837Z" fill="#2852AD"/>
</svg>
