<svg width="141" height="40" viewBox="0 0 141 40" fill="none" xmlns="http://www.w3.org/2000/svg">
<path d="M20 40C31.0457 40 40 31.0457 40 20C40 8.9543 31.0457 0 20 0C8.9543 0 0 8.9543 0 20C0 31.0457 8.9543 40 20 40Z" fill="#2852AD"/>
<path d="M28.1452 13.1134H16.8605V17.6417H27.2193V21.3454H16.8605V26.8287H28.666V30.6626H12.5057V9.33734H28.1452V13.1134Z" fill="white"/>
<path d="M48.3104 26V14.8H57.6064V16.464H50.0384V24.336H57.6064V26H48.3104ZM49.2544 21.088V19.424H56.7264V21.088H49.2544ZM63.0761 26V14.8H72.3721V16.464H64.8041V24.336H72.3721V26H63.0761ZM64.0201 21.088V19.424H71.4921V21.088H64.0201ZM77.8417 26V14.8H84.3857C85.047 14.8 85.6497 14.9547 86.1937 15.264C86.7484 15.5627 87.191 15.9733 87.5217 16.496C87.8524 17.0187 88.0177 17.6 88.0177 18.24C88.0177 18.912 87.8364 19.5253 87.4737 20.08C87.111 20.624 86.631 21.0613 86.0337 21.392C85.4364 21.712 84.7804 21.872 84.0657 21.872H79.5697V26H77.8417ZM86.5137 26L82.7057 20.944L84.5457 20.544L88.6737 26.016L86.5137 26ZM79.5697 20.208H83.9057C84.311 20.208 84.6844 20.1173 85.0257 19.936C85.3777 19.7547 85.655 19.5147 85.8577 19.216C86.071 18.9173 86.1777 18.592 86.1777 18.24C86.1777 17.9093 86.071 17.6107 85.8577 17.344C85.655 17.0773 85.3777 16.864 85.0257 16.704C84.6844 16.544 84.311 16.464 83.9057 16.464H79.5697V20.208ZM94.1416 26V24.288H97.0696V16.512H94.1416V14.8H101.726V16.512H98.7976V24.288H101.726V26H94.1416ZM112.406 26.16C111.606 26.16 110.864 26.08 110.182 25.92C109.51 25.76 108.891 25.52 108.326 25.2C107.771 24.88 107.264 24.4747 106.806 23.984L107.894 22.544C108.587 23.2587 109.291 23.7813 110.006 24.112C110.731 24.4427 111.536 24.608 112.422 24.608C112.976 24.608 113.51 24.544 114.022 24.416C114.534 24.2773 114.955 24.0747 115.286 23.808C115.616 23.5307 115.782 23.184 115.782 22.768C115.782 22.5013 115.691 22.2827 115.51 22.112C115.328 21.9413 115.088 21.8027 114.79 21.696C114.502 21.5893 114.187 21.504 113.846 21.44C113.504 21.376 113.174 21.328 112.854 21.296C112.544 21.264 112.283 21.2373 112.07 21.216C111.355 21.12 110.704 20.992 110.118 20.832C109.542 20.6613 109.046 20.448 108.63 20.192C108.224 19.936 107.91 19.6213 107.686 19.248C107.472 18.8747 107.366 18.4427 107.366 17.952C107.366 17.4293 107.488 16.9653 107.734 16.56C107.99 16.144 108.342 15.7973 108.79 15.52C109.248 15.232 109.776 15.0133 110.374 14.864C110.982 14.7147 111.638 14.64 112.342 14.64C113.088 14.64 113.771 14.7147 114.39 14.864C115.008 15.0133 115.558 15.2373 116.038 15.536C116.528 15.824 116.934 16.1813 117.254 16.608L116.102 17.872C115.803 17.5093 115.456 17.2053 115.062 16.96C114.667 16.704 114.235 16.512 113.766 16.384C113.307 16.256 112.816 16.192 112.294 16.192C111.718 16.192 111.2 16.256 110.742 16.384C110.283 16.512 109.92 16.6933 109.654 16.928C109.387 17.152 109.254 17.4293 109.254 17.76C109.254 18.048 109.334 18.2933 109.494 18.496C109.664 18.6987 109.899 18.8693 110.198 19.008C110.496 19.136 110.854 19.2427 111.27 19.328C111.696 19.4133 112.166 19.488 112.678 19.552C113.318 19.6267 113.936 19.7227 114.534 19.84C115.131 19.9573 115.664 20.1227 116.134 20.336C116.603 20.5387 116.976 20.816 117.254 21.168C117.531 21.52 117.67 21.9787 117.67 22.544C117.67 23.2693 117.451 23.904 117.014 24.448C116.576 24.992 115.963 25.4133 115.174 25.712C114.395 26.0107 113.472 26.16 112.406 26.16ZM121.711 22.144V20.608H127.439V22.144H121.711ZM132.837 26L137.477 15.888L137.669 16.4H130.885V14.8H138.933L139.157 15.904L134.693 26H132.837Z" fill="#2852AD"/>
</svg>
